<svg width="427" height="168" viewBox="0 0 427 168" fill="none" xmlns="http://www.w3.org/2000/svg">
<path d="M222.387 3.48909L245.941 25.6048L287.836 14.7024L294.128 36.9908L346.009 32.699L334.423 52.9784L391.21 55.7173L362.881 72.0026L419.016 81.5041L376.717 92.2012L426.705 107.535L374.576 111.597L413.524 131.263L356.668 128.291L380.763 150.364L324.745 140.65L331.629 162.968L281.933 147.464L270.932 167.843L232.422 148.065L204.613 164.511L181.059 142.395L139.164 153.298L132.872 131.009L80.9912 135.301L92.5769 115.022L35.7897 112.283L64.1186 95.9975L7.98369 86.496L50.2828 75.7989L0.295063 60.4648L52.4239 56.4031L13.4764 36.7375L70.3322 39.7087L46.2375 17.6365L102.255 27.3498L95.3714 5.03165L145.067 20.5362L156.068 0.156794L194.578 19.9349L222.387 3.48909Z" fill="#FE5000"/>
</svg>
