<svg width="49" height="46" viewBox="0 0 49 46" fill="none" xmlns="http://www.w3.org/2000/svg">
<path d="M20.7241 2.06828C21.164 1.54048 21.7097 1.11076 22.3259 0.806826C22.9422 0.502894 23.6153 0.331503 24.3018 0.303707C24.9884 0.275912 25.6731 0.392328 26.3119 0.645449C26.9507 0.89857 27.5294 1.28277 28.0106 1.77328L28.2761 2.06828L37.9447 13.6667H45.2828C45.7987 13.6656 46.309 13.7735 46.7803 13.9833C47.2516 14.1931 47.6733 14.5002 48.0177 14.8843C48.3621 15.2684 48.6215 15.7209 48.7789 16.2122C48.9363 16.7035 48.9881 17.2225 48.931 17.7352L48.7048 19.6183L48.459 21.4375L48.2574 22.7994L48.0238 24.2621L47.7583 25.7986L47.4584 27.3916L47.1241 29.0165C46.9471 29.836 46.757 30.6546 46.5538 31.4724C46.0096 33.6309 45.3264 35.752 44.5084 37.8223L43.9651 39.1498L43.4391 40.3494L42.9425 41.4164L42.7114 41.8933L42.0993 43.0979C41.3126 44.5974 39.8278 45.4824 38.2569 45.6103L37.8636 45.625H11.1144C10.255 45.6315 9.40996 45.4043 8.66957 44.9679C7.92917 44.5314 7.32123 43.9021 6.91068 43.147L6.34035 42.0408L5.89785 41.1312L5.6643 40.6272L5.17264 39.5234C4.04991 36.9164 3.13902 34.2232 2.4488 31.4699C2.31534 30.9354 2.1875 30.3994 2.0653 29.8622L1.71622 28.2692L1.40401 26.7106L1.12868 25.2037L0.882846 23.7606L0.668971 22.3987L0.487055 21.1376L0.265804 19.4585L0.103554 18.0917L0.0617627 17.7156C0.0109107 17.2326 0.0566067 16.7443 0.196192 16.2792C0.335778 15.8141 0.566466 15.3813 0.874836 15.0061C1.18321 14.631 1.5631 14.3209 1.99242 14.0939C2.42175 13.8669 2.89192 13.7275 3.3756 13.6839L3.70993 13.6667H11.0579L20.7241 2.06828ZM43.8791 18.5834H5.11118L5.2636 19.7732L5.45043 21.1204L5.6766 22.6052L5.9421 24.1982C6.04043 24.7439 6.14368 25.3028 6.25185 25.8748L6.60339 27.6128C6.79022 28.4929 6.99672 29.3877 7.21797 30.2777C7.84184 32.7626 8.66392 35.1934 9.6763 37.5469L10.1581 38.6311L10.6056 39.5751L11.0063 40.3691L11.1833 40.7084H37.7996L38.1782 39.9635L38.6133 39.0662L39.0903 38.0263C39.9925 35.9982 41.025 33.3112 41.7821 30.2777C42.0894 29.0485 42.3623 27.7997 42.6057 26.5729L42.9498 24.7587L43.2448 23.0157L43.3751 22.1824L43.6087 20.6164L43.798 19.2152L43.8791 18.5834ZM19.549 25.5552L20.7781 32.9302C20.864 33.5636 20.6997 34.2055 20.3203 34.7198C19.9408 35.2341 19.3759 35.5804 18.7454 35.6853C18.1149 35.7902 17.4684 35.6454 16.9428 35.2816C16.4173 34.9178 16.0541 34.3636 15.9303 33.7365L14.7011 26.3615C14.6374 26.0387 14.6391 25.7063 14.7062 25.3842C14.7733 25.062 14.9043 24.7566 15.0916 24.4861C15.2789 24.2155 15.5186 23.9853 15.7966 23.8091C16.0745 23.6329 16.3849 23.5143 16.7095 23.4603C17.0342 23.4063 17.3663 23.418 17.6863 23.4948C18.0063 23.5715 18.3076 23.7117 18.5724 23.9071C18.8372 24.1025 19.0601 24.349 19.2278 24.6321C19.3956 24.9152 19.5048 25.2291 19.549 25.5552ZM31.9931 23.5L32.2782 23.532C32.8732 23.6302 33.4114 23.9437 33.7903 24.4128C34.1693 24.8819 34.3625 25.474 34.3334 26.0764L34.3014 26.3615L33.0723 33.7365C32.968 34.3539 32.6321 34.9082 32.1331 35.2863C31.6342 35.6645 31.0097 35.838 30.3872 35.7715C29.7647 35.705 29.1909 35.4035 28.7831 34.9285C28.3753 34.4535 28.164 33.8408 28.1925 33.2154L28.2244 32.9302L29.4536 25.5552C29.5517 24.9611 29.8645 24.4236 30.3326 24.0448C30.8007 23.666 31.3915 23.4721 31.9931 23.5ZM24.5001 5.21495L17.4569 13.6667H31.5432L24.5001 5.21495Z" fill="white"/>
</svg>
