<svg width="557" height="183" viewBox="0 0 557 183" fill="none" xmlns="http://www.w3.org/2000/svg">
<path d="M40.0256 167.506C40.9057 167.658 41.7997 167.744 42.7017 167.744V167.75H50.0639C51.9307 170.08 53.8753 172.341 55.8799 174.524C58.5588 177.381 61.2817 180.27 64.372 182.689C62.4425 182.181 60.6023 181.333 58.7998 180.47C52.027 177.058 45.6972 172.666 40.0256 167.506ZM80.5593 113.324C78.4399 114.751 76.2314 116.041 73.9464 117.16C70.2083 118.959 66.255 120.341 62.2549 121.388C56.7312 122.787 51.6622 123.979 46.1985 125.289C43.7545 125.866 40.9997 126.481 38.6043 127.192C36.3308 127.796 34.5874 129.054 32.8894 130.719C32.2572 131.341 31.6694 132.043 31.1232 132.788C34.2043 143.098 39.2541 152.81 45.4908 161.66H42.7017C40.6014 161.661 38.5558 160.976 36.8797 159.71C35.2035 158.443 33.9855 156.659 33.4127 154.637L24.6054 123.588C24.4368 123.034 24.3521 122.456 24.3557 121.876C24.3624 120.235 25.0184 118.662 26.1814 117.505C27.1992 116.492 28.5354 115.871 29.9517 115.733L30.5642 115.703H33.3771C32.8492 116.491 32.3553 117.315 31.9082 118.189C30.6993 120.55 29.9239 123.298 29.4224 126.027C29.4262 126.048 29.4306 126.07 29.4343 126.092C30.235 124.4 31.3041 122.838 32.6099 121.501C34.2003 119.934 35.9202 118.833 37.7837 117.737C39.0495 117.016 40.3382 116.344 41.6372 115.703H42.7612L43.3856 114.864C46.857 113.257 50.4319 111.901 54.084 110.743L50.3731 115.703H74.7314L67.958 106.675C68.1771 106.604 68.3992 106.541 68.6181 106.467C70.4107 105.872 72.1889 105.212 73.9583 104.523L80.5593 113.324ZM72.5489 0C77.4815 3.80256 79.9747 21.7311 80.6485 28.1823C80.6897 28.6558 80.7635 29.3211 80.7972 29.8177L80.262 31.1023C76.6166 39.7999 71.8797 47.9681 66.0074 55.3359C60.4614 62.4238 53.8407 68.5407 47.7744 75.0974C45.8244 77.1686 43.8552 79.3533 41.9465 81.4665C38.9788 84.8176 35.752 88.3592 33.2522 91.9509C31.9133 93.8456 30.8708 95.9505 29.9992 98.1238C29.135 100.252 28.5512 102.394 28.233 104.713C28.0647 105.927 27.9681 107.244 27.9119 108.584C29.9704 103.801 34.8284 99.1838 38.533 95.745C42.6836 91.958 47.1075 88.4567 51.7409 85.2963C54.5365 83.4125 57.7846 81.3564 60.5839 79.4803C64.7644 76.6716 68.8841 73.7197 72.769 70.4945C75.2351 68.4808 77.685 66.3582 80.0539 64.2146C80.0539 64.2146 80.0812 64.1959 80.1074 64.173C81.2187 60.9101 82.3304 57.5317 83.3781 54.3071C84.3212 51.3266 85.3052 48.3539 85.9115 45.2856C86.0836 44.2427 86.2622 43.2136 86.0304 42.1516C86.9093 42.8852 87.4111 44.0114 87.8264 45.0656C88.2456 46.1471 88.539 47.2579 88.7898 48.3661C90.1629 54.9346 90.2073 61.6319 89.777 68.2882L89.7175 68.984C89.3987 69.5122 88.6132 70.7373 88.314 71.226C85.0469 76.3921 81.1336 81.1398 76.7177 85.3201C74.8599 87.0623 72.8905 88.6997 70.866 90.2501L69.861 88.9061L69.1771 88.0973C68.692 87.5868 68.1486 87.1332 67.5595 86.7474L66.6378 86.2181L65.6684 85.8018C64.6731 85.4411 63.6163 85.2547 62.5523 85.2547C61.4895 85.2552 60.4363 85.4415 59.4421 85.8018L58.4668 86.2181C57.5176 86.6932 56.661 87.3317 55.9334 88.0973L55.2496 88.9061L39.7223 109.613H30.5642C27.3142 109.611 24.1924 110.895 21.8877 113.187C19.5842 115.479 18.2822 118.591 18.2661 121.84C18.2592 122.992 18.43 124.136 18.7538 125.242L18.7478 125.248L26.1516 151.378C19.0538 140.729 14.314 128.477 12.9199 115.56C12.295 108.961 12.2441 102.126 14.1449 95.6261C15.1817 92.1371 16.541 88.839 18.3375 85.671C18.3516 85.6491 18.3623 85.6299 18.3732 85.6115C18.4217 85.4971 18.4695 85.3772 18.5218 85.2666C20.221 81.5834 22.8334 77.6645 25.3666 73.8783C27.1405 71.2265 28.8164 68.7229 30.029 66.522C31.5623 63.7353 31.6043 62.7362 31.6049 62.6208C31.56 58.3639 29.3045 54.2236 24.8136 45.9814C24.4997 45.409 24.1791 44.8159 23.8502 44.2092C22.0202 40.8429 20.089 37.5939 18.1055 34.5217C15.6325 36.9129 12.8687 39.2399 10.3509 41.4974C8.79022 42.8922 6.38465 44.8058 5.05221 46.2847C3.39423 48.5431 2.929 51.303 2.95892 54.1881C0.597327 51.8609 -0.418343 48.1927 0.157959 44.8872C0.468603 42.8312 1.7321 40.7262 2.73889 39.1365C4.75609 36.0452 6.97057 33.3324 9.50046 30.7455C10.6341 29.5881 11.9596 28.3673 13.1042 27.2368C14.2757 26.1095 15.437 24.8928 16.601 23.7578L18.9203 21.4921C19.8401 20.5644 20.7595 19.7048 21.3882 18.6019C22.9265 15.4568 21.5841 11.7196 20.3416 8.60516C24.8478 10.4891 28.0493 15.086 27.4243 20.2373C27.0607 23.0333 25.5785 25.4175 23.981 27.6293C26.5633 31.4811 29.0599 35.6171 31.4027 39.9275C31.7318 40.5308 32.0557 41.1187 32.3661 41.6877C36.8945 50.0028 39.7521 55.2565 40.1862 61.1757C40.6391 60.7592 41.0974 60.3455 41.554 59.9328C45.8652 56.0773 50.3735 52.4191 54.5538 48.4375C61.0846 42.373 66.9075 35.5308 72.091 28.2359C72.091 28.2359 72.3378 27.8793 72.5549 27.5698C73.0077 23.2217 73.3918 18.8262 73.6313 14.4629C73.7698 10.6983 74.3301 3.0034 72.5489 0ZM90.8593 87.4134C91.4088 88.9032 91.3779 90.5688 91.2994 92.1234C91.1946 93.9042 90.9285 95.6484 90.5917 97.3566C89.9031 100.768 88.9436 104.07 87.7312 107.318L87.5231 107.841C86.9453 108.339 86.0662 109.116 85.4774 109.613H85.3882L79.7684 102.12C80.1956 101.935 80.6274 101.761 81.0529 101.573C82.5762 99.4865 84.2019 97.2649 85.6915 95.186C87.0912 93.2066 88.517 91.2389 89.6996 89.1142C90.0737 88.3847 90.4596 87.6667 90.5382 86.8187C90.669 86.9944 90.7695 87.2034 90.8593 87.4134ZM62.5523 91.3443C63.0238 91.3443 63.4921 91.4551 63.9141 91.6655C64.3366 91.8767 64.707 92.1856 64.9905 92.5634L65.9004 93.7826C63.7759 95.1875 61.5883 96.533 59.4837 97.8145C57.7633 98.8649 55.4753 100.259 53.3763 101.543L60.12 92.5634C60.4029 92.1862 60.769 91.8768 61.1905 91.6655C61.6121 91.4546 62.0809 91.3449 62.5523 91.3443Z" fill="#FE5000"/>
<path d="M94.5483 115.703H82.3482L64.9927 92.5623C64.7091 92.1841 64.3414 91.8772 63.9186 91.6658C63.4958 91.4544 63.0296 91.3444 62.5569 91.3444C62.0842 91.3444 61.618 91.4544 61.1952 91.6658C60.7724 91.8772 60.4047 92.1841 60.121 92.5623L42.7656 115.703H30.5654C28.9242 115.7 27.349 116.349 26.1853 117.506C25.0216 118.663 24.3644 120.235 24.3578 121.876C24.3543 122.456 24.4383 123.034 24.6071 123.589L33.4123 154.635C33.9849 156.658 35.2026 158.439 36.8803 159.707C38.5579 160.975 40.6038 161.66 42.7066 161.659H82.4072C84.5102 161.652 86.5547 160.965 88.2354 159.701C89.916 158.437 91.1426 156.663 91.7319 154.644L100.549 123.557C100.589 123.409 100.618 123.259 100.636 123.107L100.737 122.169C100.748 122.071 100.754 121.973 100.754 121.874C100.747 120.234 100.09 118.663 98.9266 117.506C97.7633 116.349 96.1889 115.701 94.5483 115.703ZM62.5569 99.4645L74.7361 115.703H50.3776L62.5569 99.4645ZM62.5569 146.088C61.1394 146.081 59.7557 145.655 58.5804 144.862C57.4051 144.07 56.4909 142.947 55.9531 141.636C55.4154 140.324 55.2782 138.883 55.5589 137.493C55.8395 136.104 56.5255 134.829 57.5302 133.829C58.5349 132.829 59.8133 132.149 61.2041 131.875C62.5948 131.601 64.0356 131.745 65.3445 132.289C66.6534 132.833 67.7719 133.752 68.5587 134.932C69.3455 136.111 69.7655 137.496 69.7655 138.914C69.7549 140.819 68.9907 142.642 67.6399 143.985C66.2891 145.328 64.4616 146.081 62.5569 146.081V146.088Z" fill="white"/>
<path d="M503.066 143.521H485.527V38H540.773C546.619 38 550.759 39.0231 553.195 41.0692C555.631 43.1153 556.849 47.2562 556.849 53.492V87.5452C556.849 93.7809 555.631 97.9219 553.195 99.968C550.759 102.014 546.619 103.037 540.773 103.037H503.066V143.521ZM539.311 81.9914V59.1919C539.311 57.1458 539.019 55.9278 538.434 55.5381C537.947 55.0509 536.729 54.8074 534.78 54.8074H503.066V86.2298H534.78C536.826 86.2298 538.093 86.0349 538.58 85.6452C539.067 85.2555 539.311 84.0375 539.311 81.9914Z" fill="white"/>
<path d="M450.7 143.521H405.686C399.84 143.521 395.699 142.498 393.263 140.452C390.827 138.406 389.609 134.265 389.609 128.029V53.492C389.609 47.2562 390.827 43.1153 393.263 41.0692C395.699 39.0231 399.84 38 405.686 38H450.7C456.546 38 460.687 39.0231 463.123 41.0692C465.559 43.1153 466.777 47.2562 466.777 53.492V128.029C466.777 134.265 465.559 138.406 463.123 140.452C460.687 142.498 456.546 143.521 450.7 143.521ZM449.239 122.475V59.1919C449.239 57.1458 448.946 55.9278 448.362 55.5381C447.875 55.0509 446.657 54.8074 444.708 54.8074H411.678C409.729 54.8074 408.463 55.0509 407.878 55.5381C407.391 55.9278 407.147 57.1458 407.147 59.1919V122.329C407.147 124.375 407.391 125.642 407.878 126.129C408.463 126.519 409.729 126.714 411.678 126.714H444.708C446.754 126.714 448.021 126.519 448.508 126.129C448.995 125.739 449.239 124.521 449.239 122.475Z" fill="white"/>
<path d="M370.869 143.521H353.33V99.0911H311.385V143.521H293.847V38H311.385V82.2837H353.33V38H370.869V143.521Z" fill="white"/>
<path d="M260.035 143.521H219.551C213.705 143.521 209.564 142.498 207.128 140.452C204.692 138.406 203.474 134.265 203.474 128.029V112.099H221.013V122.329C221.013 124.375 221.256 125.642 221.743 126.129C222.328 126.519 223.595 126.714 225.543 126.714H254.043C255.991 126.714 257.209 126.519 257.696 126.129C258.281 125.642 258.573 124.375 258.573 122.329V103.622C258.573 101.576 258.281 100.358 257.696 99.968C257.209 99.4808 255.991 99.2372 254.043 99.2372H219.405C213.559 99.2372 209.418 98.2142 206.982 96.1681C204.546 94.122 203.328 89.981 203.328 83.7452V53.492C203.328 47.2562 204.546 43.1153 206.982 41.0692C209.418 39.0231 213.559 38 219.405 38H259.889C265.735 38 269.876 39.0231 272.311 41.0692C274.747 43.1153 275.965 47.2562 275.965 53.492V69.4225H258.427V59.1919C258.427 57.1458 258.135 55.9278 257.55 55.5381C257.063 55.0509 255.845 54.8074 253.896 54.8074H225.397C223.448 54.8074 222.182 55.0509 221.597 55.5381C221.11 55.9278 220.866 57.1458 220.866 59.1919V78.0454C220.866 80.0915 221.11 81.3581 221.597 81.8453C222.182 82.235 223.448 82.4299 225.397 82.4299H260.035C265.881 82.4299 270.022 83.4529 272.458 85.4991C274.893 87.5452 276.111 91.6861 276.111 97.9219V128.029C276.111 134.265 274.893 138.406 272.458 140.452C270.022 142.498 265.881 143.521 260.035 143.521Z" fill="white"/>
<path d="M145.538 143.521H128V38H192.306V54.8074H145.538V82.2837H182.807V99.0911H145.538V143.521Z" fill="white"/>
</svg>
