<svg width="527" height="165" viewBox="0 0 527 165" fill="none" xmlns="http://www.w3.org/2000/svg">
<path d="M87.592 79.3925C87.5089 79.2008 87.415 79.0122 87.2911 78.8505C87.1968 79.6161 86.8106 80.2579 86.4311 80.9101C85.2359 82.8076 83.8037 84.5547 82.4002 86.3166C80.9074 88.1661 79.2804 90.1408 77.7547 91.997C73.7543 93.5391 69.679 94.9971 65.5518 96.1777C61.164 97.4424 56.7288 98.3884 52.2718 99.4961C46.3983 101.038 40.7034 103.04 35.3094 105.75C33.4726 106.704 31.7742 107.662 30.1936 109.046C28.8945 110.229 27.824 111.621 27.0093 113.135C27.0062 113.115 26.9994 113.094 26.9962 113.073C27.5408 110.616 28.3517 108.151 29.5773 106.04C30.6662 104.165 31.9363 102.497 33.5821 101.131C35.2693 99.8663 37.2914 98.7773 39.178 97.7206C41.6103 96.3842 45.5473 94.2736 48.0088 92.9449C50.5514 91.5524 54.3188 89.5318 56.8429 88.17C59.8873 86.5316 63.1158 84.7939 66.0565 82.8976C68.7679 81.1524 71.4134 79.2713 73.8729 77.2203C78.2582 73.5286 82.1631 69.3124 85.4504 64.7066C85.7518 64.2706 86.5422 63.1773 86.8629 62.7067L86.9354 62.0794C87.4924 56.0694 87.5875 50.0157 86.3866 44.0493C86.1655 43.0425 85.9045 42.0346 85.5188 41.0484C85.1363 40.0868 84.6715 39.0574 83.8308 38.3765C84.0346 39.3415 83.8382 40.2676 83.6493 41.207C82.9955 43.9695 81.9795 46.6376 80.9996 49.3136C79.9128 52.2085 78.7576 55.2402 77.6077 58.1687C77.5818 58.1889 77.5595 58.2057 77.5595 58.2057C75.2092 60.0965 72.7794 61.9648 70.3373 63.7365C66.4892 66.5745 62.4171 69.1597 58.2904 71.6151C55.5267 73.2558 52.3221 75.0497 49.5617 76.697C44.9866 79.4615 40.612 82.538 36.4937 85.8786C32.8161 88.9142 27.9921 92.994 25.8895 97.2784C25.9719 96.0666 26.0938 94.8802 26.283 93.785C26.6406 91.6942 27.2497 89.7675 28.1353 87.8607C29.0291 85.9121 30.089 84.0295 31.4324 82.3424C33.9402 79.1451 37.1536 76.0101 40.1117 73.0396C42.0133 71.167 43.9709 69.2337 45.9116 67.4001C51.9524 61.5927 58.5234 56.1936 64.0688 49.8957C69.9371 43.3523 74.7176 36.0637 78.4459 28.2733L78.9935 27.1231C78.9712 26.6734 78.9119 26.0707 78.8819 25.6415C78.3599 19.7962 76.3051 3.53615 71.5826 0C73.2545 2.75112 72.5484 9.69801 72.336 13.0983C72.0124 17.0389 71.546 21.0044 71.0153 24.927C70.7975 25.2025 70.5497 25.5154 70.5497 25.5154C65.3533 32.0071 59.5472 38.0786 53.0648 43.431C48.9133 46.9474 44.4481 50.1638 40.1718 53.5633C39.7188 53.9276 39.2658 54.2915 38.8164 54.6589C38.5165 49.2988 35.8423 44.4947 31.6068 36.8863C31.3163 36.3653 31.0152 35.8268 30.7071 35.2744C28.5161 31.3305 26.172 27.5424 23.7383 24.0083C25.3397 22.0399 26.8316 19.9137 27.2429 17.392C27.958 12.7473 24.9386 8.5306 20.5917 6.7373C21.7366 9.57784 22.967 12.9801 21.4046 15.7927C20.7698 16.7786 19.8559 17.5376 18.9405 18.3587L16.635 20.3611C15.4786 21.3639 14.3242 22.4394 13.1606 23.4352C12.0225 24.4349 10.7077 25.514 9.57993 26.5382C7.06379 28.8266 4.85116 31.2318 2.82366 33.9865C1.81083 35.4036 0.539591 37.282 0.194643 39.1346C-0.434828 42.1113 0.476347 45.4485 2.7267 47.5996C2.75734 44.9907 3.26985 42.5056 4.93037 40.4967C6.25783 39.1864 8.63616 37.5035 10.1841 36.2737C12.6825 34.2822 15.4227 32.2335 17.8801 30.1201C19.7471 32.9375 21.5558 35.9126 23.2674 38.9927C23.5753 39.5487 23.8763 40.0907 24.1705 40.6151C28.371 48.1572 30.4818 51.944 30.4373 55.7935C30.4352 55.8866 30.3818 56.7843 28.8191 59.2927C27.5933 61.2584 25.9131 63.4883 24.1315 65.8502C21.5869 69.2236 18.9594 72.7123 17.2293 76.009C17.176 76.1083 17.1298 76.2143 17.0801 76.3172C17.0688 76.3339 17.0575 76.351 17.0424 76.3717C15.2282 79.1996 13.8377 82.1507 12.7564 85.2844C10.7712 91.123 10.6805 97.3049 11.1521 103.284C13.5032 128.551 31.0758 151.334 54.46 162.882C56.1981 163.698 57.9725 164.502 59.8416 165C56.8832 162.751 54.2908 160.085 51.742 157.447C41.3233 146.442 32.7186 133.401 28.5099 119.222C29.0571 118.559 29.6436 117.939 30.2721 117.388C31.9604 115.916 33.684 114.81 35.9114 114.31C38.2574 113.716 40.9475 113.214 43.3382 112.742C48.684 111.665 53.6407 110.692 59.0466 109.538C62.9622 108.671 66.8375 107.5 70.5143 105.947C74.5443 104.215 78.3669 102.009 81.8341 99.405C82.4163 98.9709 83.3294 98.2501 83.923 97.7954L84.1342 97.3263C85.3817 94.4138 86.3862 91.4484 87.1272 88.3769C87.4908 86.8391 87.7851 85.2689 87.9243 83.6613C88.033 82.2566 88.0968 80.7507 87.592 79.3925Z" fill="#FE5000"/>
<path d="M457.141 126.473V39.4468H494.705C501.164 39.4468 506.816 40.7216 511.66 43.2712C516.504 45.8208 520.272 49.4044 522.963 54.022C525.654 58.6396 527 64.0362 527 70.2119C527 76.4442 525.612 81.8408 522.836 86.4017C520.088 90.9627 516.221 94.4754 511.235 96.94C506.278 99.4046 500.484 100.637 493.855 100.637H471.419V82.2799H489.096C491.872 82.2799 494.238 81.7983 496.193 80.8351C498.176 79.8436 499.691 78.4414 500.739 76.6283C501.816 74.8153 502.354 72.6765 502.354 70.2119C502.354 67.7189 501.816 65.5943 500.739 63.8379C499.691 62.0532 498.176 60.6934 496.193 59.7586C494.238 58.7954 491.872 58.3138 489.096 58.3138H480.768V126.473H457.141Z" fill="white"/>
<path d="M446.21 82.9597C446.21 92.6481 444.326 100.821 440.558 107.478C436.791 114.107 431.706 119.135 425.303 122.563C418.901 125.963 411.762 127.662 403.887 127.662C395.955 127.662 388.788 125.949 382.385 122.521C376.011 119.065 370.941 114.022 367.173 107.393C363.433 100.736 361.564 92.5915 361.564 82.9597C361.564 73.2712 363.433 65.1126 367.173 58.4836C370.941 51.8264 376.011 46.798 382.385 43.3986C388.788 39.9708 395.955 38.2569 403.887 38.2569C411.762 38.2569 418.901 39.9708 425.303 43.3986C431.706 46.798 436.791 51.8264 440.558 58.4836C444.326 65.1126 446.21 73.2712 446.21 82.9597ZM421.904 82.9597C421.904 77.7472 421.21 73.3562 419.822 69.7868C418.462 66.1891 416.437 63.4695 413.745 61.6281C411.082 59.7584 407.796 58.8236 403.887 58.8236C399.978 58.8236 396.677 59.7584 393.986 61.6281C391.323 63.4695 389.298 66.1891 387.909 69.7868C386.55 73.3562 385.87 77.7472 385.87 82.9597C385.87 88.1722 386.55 92.5773 387.909 96.175C389.298 99.7445 391.323 102.464 393.986 104.334C396.677 106.175 399.978 107.096 403.887 107.096C407.796 107.096 411.082 106.175 413.745 104.334C416.437 102.464 418.462 99.7445 419.822 96.175C421.21 92.5773 421.904 88.1722 421.904 82.9597Z" fill="white"/>
<path d="M272.158 126.473V39.4468H295.784V73.4413H327.059V39.4468H350.685V126.473H327.059V92.4783H295.784V126.473H272.158Z" fill="white"/>
<path d="M239.374 66.6423C239.147 63.8094 238.085 61.5998 236.187 60.0134C234.317 58.427 231.47 57.6338 227.646 57.6338C225.21 57.6338 223.212 57.9312 221.654 58.5261C220.125 59.0927 218.991 59.8717 218.255 60.8632C217.518 61.8547 217.136 62.9879 217.108 64.2627C217.051 65.3109 217.235 66.2599 217.66 67.1097C218.113 67.9313 218.822 68.682 219.785 69.3619C220.748 70.0134 221.98 70.6083 223.482 71.1466C224.983 71.6848 226.768 72.1664 228.836 72.5913L235.975 74.1211C240.79 75.1409 244.912 76.4866 248.34 78.1579C251.768 79.8293 254.572 81.7982 256.754 84.0645C258.935 86.3025 260.536 88.8237 261.555 91.6283C262.604 94.4328 263.142 97.4923 263.17 100.807C263.142 106.529 261.711 111.373 258.878 115.339C256.045 119.305 251.994 122.322 246.725 124.39C241.484 126.458 235.181 127.492 227.816 127.492C220.252 127.492 213.652 126.373 208.014 124.136C202.405 121.898 198.042 118.456 194.926 113.81C191.838 109.135 190.28 103.158 190.252 95.8776H212.688C212.83 98.5405 213.496 100.778 214.686 102.591C215.875 104.405 217.547 105.778 219.7 106.713C221.881 107.648 224.473 108.116 227.476 108.116C229.997 108.116 232.108 107.804 233.807 107.181C235.507 106.558 236.796 105.693 237.674 104.589C238.552 103.484 239.006 102.223 239.034 100.807C239.006 99.4753 238.567 98.3138 237.717 97.3223C236.895 96.3025 235.535 95.396 233.637 94.6028C231.739 93.7813 229.176 93.0164 225.946 92.3082L217.278 90.4385C209.572 88.7671 203.496 85.9767 199.048 82.0673C194.629 78.1296 192.433 72.7613 192.462 65.9624C192.433 60.4383 193.906 55.6083 196.881 51.4723C199.884 47.3079 204.034 44.0643 209.331 41.7413C214.657 39.4184 220.762 38.2569 227.646 38.2569C234.671 38.2569 240.748 39.4325 245.875 41.7838C251.003 44.1351 254.955 47.4496 257.731 51.7272C260.536 55.9765 261.952 60.9482 261.98 66.6423H239.374Z" fill="white"/>
<path d="M122.582 126.473V39.4468H183.772V58.4838H146.208V73.4413H180.033V92.4783H146.208V126.473H122.582Z" fill="#FE5000"/>
</svg>
